<svg width="18" height="16" viewBox="0 0 18 16" fill="none" xmlns="http://www.w3.org/2000/svg">
<path d="M5.74791 9H4.4706C4.23536 9 4.04483 9.22375 4.04483 9.5V15.5C4.04483 15.7762 4.23536 16 4.4706 16H5.74791C5.98315 16 6.17368 15.7762 6.17368 15.5V9.5C6.17368 9.22375 5.98315 9 5.74791 9ZM2.34175 12H1.06444C0.829204 12 0.638672 12.2238 0.638672 12.5V15.5C0.638672 15.7762 0.829204 16 1.06444 16H2.34175C2.57699 16 2.76752 15.7762 2.76752 15.5V12.5C2.76752 12.2238 2.57699 12 2.34175 12ZM9.15407 6H7.87676C7.64152 6 7.45099 6.22375 7.45099 6.5V15.5C7.45099 15.7762 7.64152 16 7.87676 16H9.15407C9.3893 16 9.57984 15.7762 9.57984 15.5V6.5C9.57984 6.22375 9.3893 6 9.15407 6ZM12.5602 3H11.2829C11.0477 3 10.8571 3.22375 10.8571 3.5V15.5C10.8571 15.7762 11.0477 16 11.2829 16H12.5602C12.7955 16 12.986 15.7762 12.986 15.5V3.5C12.986 3.22375 12.7955 3 12.5602 3ZM15.9664 0H14.6891C14.4538 0 14.2633 0.22375 14.2633 0.5V15.5C14.2633 15.7762 14.4538 16 14.6891 16H15.9664C16.2016 16 16.3922 15.7762 16.3922 15.5V0.5C16.3922 0.22375 16.2016 0 15.9664 0Z" fill="black"/>
</svg>
