<svg width="221" height="187" viewBox="0 0 221 187" fill="none" xmlns="http://www.w3.org/2000/svg">
<path d="M109.003 44.4377H107.802V16.2904C107.802 11.9699 105.795 7.82641 102.224 4.77136C98.6524 1.71631 93.8085 0 88.7577 0H19.044C13.9932 0 9.14928 1.71631 5.57785 4.77136C2.00642 7.82641 0 11.9699 0 16.2904V170.709C0 175.029 2.00642 179.173 5.57785 182.228C9.14928 185.283 13.9932 186.999 19.044 186.999H88.7574C93.8082 186.999 98.6521 185.283 102.224 182.228C105.795 179.173 107.801 175.029 107.801 170.709V64.4734H109.003L109.003 44.4377Z" fill="#3F3D56"/>
<path d="M89.5262 4.23789H80.4263C80.845 5.1156 81.0049 6.06792 80.8919 7.01094C80.7789 7.95397 80.3965 8.85875 79.7784 9.64556C79.1603 10.4324 78.3255 11.0771 77.3474 11.5228C76.3694 11.9686 75.2782 12.2017 74.17 12.2017H34.2321C33.1241 12.2016 32.033 11.9685 31.0551 11.5227C30.0772 11.077 29.2425 10.4324 28.6245 9.64567C28.0064 8.85897 27.624 7.95432 27.5109 7.01142C27.3979 6.06852 27.5576 5.11631 27.9761 4.23866H19.4755C15.7035 4.23866 12.086 5.52043 9.41878 7.80198C6.75159 10.0835 5.25319 13.178 5.25319 16.4046V170.596C5.25319 173.822 6.75159 176.917 9.41878 179.198C12.086 181.48 15.7035 182.762 19.4755 182.762H89.5235C93.2955 182.762 96.913 181.48 99.5802 179.198C102.247 176.917 103.746 173.822 103.746 170.596V16.4038C103.746 13.1772 102.247 10.0828 99.5802 7.80121C96.913 5.51966 93.2955 4.23789 89.5235 4.23789H89.5262Z" fill="white"/>
<path d="M94.8372 34.5558H14.1657V152.444H94.8372V34.5558Z" fill="#E6E6E6"/>
<path d="M54.6211 174.145C58.9343 174.145 62.4309 171.154 62.4309 167.464C62.4309 163.775 58.9343 160.784 54.6211 160.784C50.3078 160.784 46.8113 163.775 46.8113 167.464C46.8113 171.154 50.3078 174.145 54.6211 174.145Z" fill="#E6E6E6"/>
<path d="M91.9532 165.063L91.0611 172.44L96.1168 171.932L96.7115 165.826L91.9532 165.063Z" fill="#FFB9B9"/>
<path d="M78.5708 109.095C78.5708 109.095 52.6968 130.464 69.0539 137.079H74.1095C74.1095 137.079 85.1133 121.559 90.4666 121.815L91.9535 136.57L91.0614 166.335L97.6042 166.589C97.6042 166.589 101.47 151.58 101.173 143.184L108.013 112.147L78.5708 109.095Z" fill="#2F2E41"/>
<path d="M70.5402 136.061L74.109 137.079C74.109 137.079 88.0868 134.28 88.9777 134.535L91.7451 134.519L91.655 128.429H79.76L70.5402 136.061Z" fill="#2F2E41"/>
<path d="M96.7115 170.914C96.7115 170.914 91.3581 168.879 90.466 170.914C89.5739 172.949 89.8713 178.801 89.8713 178.801C90.5848 179.974 90.7952 181.324 90.466 182.616C89.8713 184.652 92.8453 185.669 96.7115 184.652C100.578 183.634 100.578 181.09 100.578 181.09L96.7115 170.914Z" fill="#2F2E41"/>
<path d="M101.172 127.919C101.172 127.919 105.336 125.884 105.039 128.937C104.792 130.953 104.19 132.925 103.254 134.788C103.254 134.788 107.12 143.437 103.254 144.201C99.3878 144.964 96.4138 143.183 96.4138 141.911C96.4138 140.639 101.172 127.919 101.172 127.919Z" fill="#2F2E41"/>
<path d="M88.0867 58.2147L88.6818 67.8821L93.7375 71.6975L99.3882 64.8288V57.9604L88.0867 58.2147Z" fill="#FFB9B9"/>
<path d="M91.9529 67.8819L88.5484 65.7179L86.3025 68.645L76.1909 73.7326L82.1383 86.9612L82.4357 99.9358C82.4357 99.9358 71.432 109.603 77.9748 110.875C84.5176 112.147 107.715 114.945 108.904 112.656C110.094 110.367 107.418 86.7071 107.418 86.7071L108.31 66.6095L99.3884 63.8501L91.9529 67.8819Z" fill="#84C5BA"/>
<path d="M73.8116 83.9942C73.8116 83.9942 71.4323 98.409 75.8935 98.409C78.5428 98.4167 81.1688 97.9848 83.6258 97.1371L80.057 89.2506L81.5439 83.9082L73.8116 83.9942Z" fill="#FFB9B9"/>
<path d="M80.6518 96.6291L83.9232 97.1379C83.9232 97.1379 93.4401 92.0503 94.0348 91.7954C94.6296 91.5405 84.518 87.2161 84.518 87.2161L77.6778 89.5058L80.6518 96.6291Z" fill="#FFB9B9"/>
<path opacity="0.1" d="M84.5179 87.2161L80.2225 88.6537L81.5441 83.9089L73.8118 83.994C73.8118 83.994 71.4325 98.4087 75.8937 98.4087C78.5431 98.4165 81.169 97.9845 83.6261 97.1368L83.6035 97.087L83.9234 97.1368C83.9234 97.1368 93.4403 92.0493 94.035 91.7944C94.6298 91.5395 84.5179 87.2161 84.5179 87.2161Z" fill="black"/>
<path d="M94.9668 63.0384C99.657 63.0384 103.459 59.786 103.459 55.774C103.459 51.762 99.657 48.5096 94.9668 48.5096C90.2767 48.5096 86.4746 51.762 86.4746 55.774C86.4746 59.786 90.2767 63.0384 94.9668 63.0384Z" fill="#FFB9B9"/>
<path d="M87.4587 47.5787L85.7994 47.0106C85.7994 47.0106 89.2688 43.7432 94.0955 44.0274L92.7378 42.7489C92.7378 42.7489 96.0564 41.6124 99.0731 44.5955C100.659 46.1629 102.494 48.007 103.639 50.0834H105.416L104.674 51.4802L107.269 52.8777L104.605 52.6267C104.857 53.8326 104.771 55.0727 104.353 56.2445L104.424 57.3494C104.424 57.3494 101.336 53.2621 101.336 52.694V54.1146C101.336 54.1146 99.6769 52.8361 99.6769 51.9838L98.7718 52.9782L98.3179 51.4131L92.7369 52.9756L93.642 51.697L90.1726 52.1233L91.5303 50.5608C91.5303 50.5608 87.6086 52.4075 87.4575 53.9702C87.3064 55.533 85.3458 57.5215 85.3458 57.5215L84.4408 56.1008C84.4408 56.1008 83.0843 49.7095 87.4587 47.5787Z" fill="#2F2E41"/>
<path d="M102.362 79.5843C100.861 81.1705 100.023 83.1406 99.9826 85.1811L84.2202 84.6723C84.2202 84.6723 80.0567 84.1636 80.0567 86.7076V89.2514C80.0567 89.2514 82.1386 88.4882 83.3281 89.2514C84.5176 90.0145 97.3059 96.6291 103.551 94.0851C109.797 91.541 111.284 81.6195 111.284 81.6195C111.284 81.6195 105.633 77.549 102.362 79.5843Z" fill="#FFB9B9"/>
<path d="M105.932 66.8641L108.312 66.6097C108.312 66.6097 113.07 67.1185 112.475 75.005C111.88 82.8914 111.583 83.4002 111.583 83.4002C111.583 83.4002 105.337 78.5665 100.877 80.8564L105.932 66.8641Z" fill="#84C5BA"/>
<path d="M77.3804 73.7338H76.1909C74.6496 75.3992 73.8112 77.461 73.8116 79.585C73.7843 81.8599 73.4348 84.1236 72.7708 86.3266L82.139 84.9275L77.3804 73.7338Z" fill="#84C5BA"/>
<path d="M221 34.5492H134.644V49.1337H221V34.5492Z" fill="#E6E6E6"/>
<path d="M136.485 47.5591H219.159V36.125H136.485V47.5591Z" fill="white"/>
<path d="M143.722 37.3905C144.729 37.3905 145.714 37.646 146.552 38.1247C147.389 38.6034 148.042 39.2838 148.427 40.0798C148.813 40.8759 148.914 41.7518 148.717 42.5969C148.521 43.442 148.036 44.2183 147.323 44.8275C146.611 45.4368 145.704 45.8517 144.716 46.0198C143.728 46.1879 142.704 46.1017 141.773 45.7719C140.843 45.4422 140.047 44.8838 139.488 44.1674C138.928 43.4509 138.629 42.6087 138.629 41.747C138.629 40.5916 139.166 39.4835 140.121 38.6665C141.076 37.8495 142.371 37.3905 143.722 37.3905V37.3905Z" fill="#84C5BA"/>
<path d="M206.164 40.0422H155.901V40.9893H206.164V40.0422Z" fill="#E6E6E6"/>
<path d="M206.164 42.5045H155.901V43.4516H206.164V42.5045Z" fill="#E6E6E6"/>
<path d="M221 55.3619H134.644V69.9464H221V55.3619Z" fill="#E6E6E6"/>
<path d="M136.485 68.3719H219.159V56.9377H136.485V68.3719Z" fill="white"/>
<path d="M143.722 66.9163C146.535 66.9163 148.815 64.9658 148.815 62.5597C148.815 60.1537 146.535 58.2032 143.722 58.2032C140.909 58.2032 138.629 60.1537 138.629 62.5597C138.629 64.9658 140.909 66.9163 143.722 66.9163Z" fill="#84C5BA"/>
<path d="M206.164 60.8549H155.901V61.802H206.164V60.8549Z" fill="#E6E6E6"/>
<path d="M206.164 63.3172H155.901V64.2643H206.164V63.3172Z" fill="#E6E6E6"/>
<path d="M221 76.1746H134.644V90.7592H221V76.1746Z" fill="#E6E6E6"/>
<path d="M136.485 89.1846H219.159V77.7504H136.485V89.1846Z" fill="white"/>
<path d="M143.722 87.7289C146.535 87.7289 148.815 85.7785 148.815 83.3724C148.815 80.9664 146.535 79.0159 143.722 79.0159C140.909 79.0159 138.629 80.9664 138.629 83.3724C138.629 85.7785 140.909 87.7289 143.722 87.7289Z" fill="#84C5BA"/>
<path d="M206.164 81.6676H155.901V82.6147H206.164V81.6676Z" fill="#E6E6E6"/>
<path d="M206.164 84.1299H155.901V85.077H206.164V84.1299Z" fill="#E6E6E6"/>
</svg>
