<svg width="18" height="16" viewBox="0 0 18 16" fill="none" xmlns="http://www.w3.org/2000/svg">
<g clip-path="url(#clip0_0_7)">
<path d="M14.4762 5V7H15.3277V9H14.4762V11H1.70308V5H14.4762ZM14.9019 3H1.27731C0.571862 3 0 3.67156 0 4.5V11.5C0 12.3284 0.571862 13 1.27731 13H14.9019C15.6074 13 16.1793 12.3284 16.1793 11.5V11H16.3921C16.7449 11 17.0308 10.6642 17.0308 10.25V5.75C17.0308 5.33578 16.7449 5 16.3921 5H16.1793V4.5C16.1793 3.67156 15.6074 3 14.9019 3ZM11.07 6H2.55462V10H11.07V6Z" fill="black"/>
</g>
<defs>
<clipPath id="clip0_0_7">
<rect width="17.0308" height="16" fill="white"/>
</clipPath>
</defs>
</svg>
