<svg width="18" height="16" viewBox="0 0 18 16" fill="none" xmlns="http://www.w3.org/2000/svg">
<g clip-path="url(#clip0_0_3)">
<path d="M16.8953 4.84C12.1807 -0.280938 4.84816 -0.279063 0.135425 4.84C-0.0418013 5.0325 -0.0452607 5.35844 0.126112 5.55813L1.03726 6.61969C1.20065 6.81032 1.46356 6.81438 1.63334 6.63157C5.51636 2.45406 11.5139 2.45313 15.3977 6.63157C15.5674 6.81438 15.8304 6.81 15.9937 6.61969L16.9049 5.55813C17.076 5.35844 17.0725 5.0325 16.8953 4.84ZM8.51537 11C7.57469 11 6.81229 11.8953 6.81229 13C6.81229 14.1047 7.57469 15 8.51537 15C9.45605 15 10.2184 14.1047 10.2184 13C10.2184 11.8953 9.45605 11 8.51537 11ZM13.9085 8.38782C10.8414 5.2025 6.18588 5.20594 3.1222 8.38782C2.93859 8.57844 2.93273 8.90938 3.10703 9.11126L4.0235 10.1734C4.18316 10.3584 4.44022 10.3709 4.61026 10.1984C6.84422 7.93063 10.1916 7.93563 12.4202 10.1984C12.5903 10.3709 12.8473 10.3588 13.007 10.1734L13.9234 9.11126C14.098 8.90938 14.0919 8.57813 13.9085 8.38782Z" fill="black"/>
</g>
<defs>
<clipPath id="clip0_0_3">
<rect width="17.0308" height="16" fill="white"/>
</clipPath>
</defs>
</svg>
